<svg xmlns="http://www.w3.org/2000/svg" viewBox="0 0 38.28 30"><defs><style>.cls-1{fill:#ace543;}.cls-2{fill:#ff9600;}</style></defs><title>Asset 73</title><g id="Layer_2" data-name="Layer 2"><g id="Layer_1-2" data-name="Layer 1"><path class="cls-1" d="M11.3,5.35V1.62L32.6.65A1.3,1.3,0,0,1,33.82,2V4a1.31,1.31,0,0,1-1.25,1.35Z"/><path class="cls-2" d="M32.59,1.3a.66.66,0,0,1,.58.7V4a.66.66,0,0,1-.61.7H12V2.24L32.59,1.3m0-1.3L10.65,1V6H32.57a2,2,0,0,0,1.91-2V2a2,2,0,0,0-1.91-2Z"/><path class="cls-1" d="M11.3,28.38V24.65H32.57A1.31,1.31,0,0,1,33.82,26v2a1.31,1.31,0,0,1-1.24,1.35Z"/><path class="cls-2" d="M32.57,25.3a.66.66,0,0,1,.61.7v2a.66.66,0,0,1-.58.7L12,27.76V25.3H32.57m0-1.3H10.65v5l21.91,1a2,2,0,0,0,1.91-2V26a2,2,0,0,0-1.91-2Z"/><path class="cls-1" d="M34.62,4.34V25.66a.82.82,0,0,1-.8.84s-11.27-3-15.06-3a63.44,63.44,0,0,0-9.54,1.24,43.21,43.21,0,0,1-7.77.76.82.82,0,0,1-.8-.84V5.34a.82.82,0,0,1,.8-.84,43.41,43.41,0,0,1,7.78.77A63.37,63.37,0,0,0,18.75,6.5c3.8,0,15.06-3,15.06-3A.82.82,0,0,1,34.62,4.34Z"/><path class="cls-2" d="M33.82,27.15l-.17,0c-.11,0-11.24-2.94-14.91-3h-.11a62.94,62.94,0,0,0-9.3,1.23,43.41,43.41,0,0,1-7.9.77A1.47,1.47,0,0,1,0,24.66V5.34A1.47,1.47,0,0,1,1.45,3.85a44,44,0,0,1,7.9.78,59.76,59.76,0,0,0,9.4,1.22c3.67,0,14.8-2.95,14.91-3l.17,0a1.47,1.47,0,0,1,1.45,1.49V25.66A1.47,1.47,0,0,1,33.82,27.15Zm-15.18-4.3h.13c3.67,0,13.82,2.66,15.1,3a.19.19,0,0,0,.1-.18V4.34a.19.19,0,0,0-.1-.18c-1.28.33-11.44,2.95-15.1,3A60.31,60.31,0,0,1,9.11,5.91a43.07,43.07,0,0,0-7.65-.76.18.18,0,0,0-.16.19V24.66a.17.17,0,0,0,.15.19A43.09,43.09,0,0,0,9.1,24.1,63,63,0,0,1,18.64,22.85Z"/><path class="cls-1" d="M32,22.53h-.06a1.59,1.59,0,0,1-1.53-1.64V9.11a1.59,1.59,0,0,1,1.53-1.64H32l4.2-.82a1.6,1.6,0,0,1,1.48,1.64V21.71a1.6,1.6,0,0,1-1.48,1.64Z"/><path class="cls-2" d="M36.19,7.31a1,1,0,0,1,.79,1V21.71a1,1,0,0,1-.79,1l-4.05-.79-.12,0h-.13a.94.94,0,0,1-.89-1V9.11a.94.94,0,0,1,.89-1H32l.12,0,4.05-.79M36.1,6l-4.2.82a2.24,2.24,0,0,0-2.19,2.29V20.89a2.24,2.24,0,0,0,2.19,2.29l4.2.82a2.24,2.24,0,0,0,2.19-2.29V8.29A2.24,2.24,0,0,0,36.1,6Z"/><path class="cls-2" d="M25.42,22.46c0-1.21,0-2.39.11-3.56s.19-2.34.2-3.44-.13-2.28-.2-3.44-.14-2.35-.1-3.56a18.74,18.74,0,0,1,1.11,3.41A17.42,17.42,0,0,1,27,15.46a17.5,17.5,0,0,1-.5,3.59A18.9,18.9,0,0,1,25.42,22.46Z"/><path class="cls-1" d="M25.42,22.46a51.46,51.46,0,0,0,1-7,51.46,51.46,0,0,0-1-7"/></g></g></svg>